<svg xmlns="http://www.w3.org/2000/svg" width="900" height="620" viewBox="0 0 380 280">
<defs><radialGradient id="glow" cx="50%" cy="40%" r="65%"><stop offset="0" stop-color="#fff"/><stop offset="0.72" stop-color="#F4F4F2"/><stop offset="1" stop-color="#E8E3D8"/></radialGradient><linearGradient id="gold" x1="0" x2="1"><stop offset="0" stop-color="#D8C18A"/><stop offset="1" stop-color="#A8875C"/></linearGradient><filter id="shadow" x="-20%" y="-20%" width="140%" height="140%"><feDropShadow dx="0" dy="12" stdDeviation="12" flood-color="#111" flood-opacity=".16"/></filter></defs>
<rect width="380" height="280" fill="url(#glow)"/>
<circle cx="300" cy="45" r="52" fill="#111" opacity=".05"/><circle cx="72" cy="235" r="72" fill="#C6A86B" opacity=".10"/>
<g filter="url(#shadow)"><rect x="55" y="58" width="270" height="162" rx="34" fill="white" opacity=".86"/><path d="M105 165 C125 105 180 105 188 150 C200 105 255 105 275 165 C270 215 240 250 210 235 C190 225 170 225 150 235 C120 250 100 215 105 165 Z" fill="none" stroke="#111111" stroke-width="9" stroke-linecap="round" stroke-linejoin="round"/><path d="M75 238 H305" stroke="url(#gold)" stroke-width="5" stroke-linecap="round"/></g>
<text x="190" y="250" text-anchor="middle" font-family="Arial, sans-serif" font-weight="700" font-size="18" fill="#111">حشو كمبوزيت</text><text x="190" y="270" text-anchor="middle" font-family="Arial, sans-serif" font-size="12" fill="#A8875C" letter-spacing="2">Composite Restoration</text></svg>